<?xml version="1.0" encoding="us-ascii" standalone="no"?><svg xmlns="http://www.w3.org/2000/svg" xmlns:xlink="http://www.w3.org/1999/xlink" contentStyleType="text/css" height="1289px" preserveAspectRatio="none" style="width:906px;height:1289px;background:#FFFFFF;" version="1.1" viewBox="0 0 906 1289" width="906px" zoomAndPan="magnify"><defs/><g><!--class utilisateur--><g id="elem_utilisateur"><rect codeLine="3" fill="#F1F1F1" height="129.4844" id="utilisateur" rx="2.5" ry="2.5" style="stroke:#181818;stroke-width:0.5;" width="158" x="420" y="1153"/><ellipse cx="459.75" cy="1169" fill="#A9DCDF" rx="11" ry="11" style="stroke:#181818;stroke-width:1.0;"/><path d="M461.8281,1170.8125 L462.2188,1171.7969 L461.8281,1171.7969 C461.375,1171.7969 461.2656,1171.8125 461.1094,1171.9219 C460.8594,1172.0781 460.7031,1172.3594 460.7031,1172.6563 C460.7031,1172.9219 460.8438,1173.1719 461.0625,1173.3281 C461.2031,1173.4531 461.4063,1173.5 461.8281,1173.5 L464.1875,1173.5 C464.5469,1173.5 464.7656,1173.4688 464.9063,1173.375 C465.1563,1173.2344 465.3125,1172.9375 465.3125,1172.6563 C465.3125,1172.375 465.1719,1172.125 464.9531,1171.9688 C464.7813,1171.8281 464.625,1171.7969 464.1563,1171.7969 L460.7656,1163.5938 L457.0938,1163.5938 C456.6406,1163.5938 456.5156,1163.6094 456.3594,1163.7031 C456.1094,1163.875 455.9531,1164.1563 455.9531,1164.4375 C455.9531,1164.7188 456.0938,1164.9688 456.3125,1165.1406 C456.4844,1165.25 456.6563,1165.2813 457.0938,1165.2813 L458.1719,1165.2813 L455.5313,1171.7969 C455.1094,1171.7969 454.9531,1171.8125 454.7969,1171.9219 C454.5469,1172.0781 454.3906,1172.3594 454.3906,1172.6563 C454.3906,1173.2188 454.7656,1173.5 455.5156,1173.5 L457.7813,1173.5 C458.1406,1173.5 458.3594,1173.4688 458.4844,1173.375 C458.75,1173.2344 458.8906,1172.9375 458.8906,1172.6563 C458.8906,1172.375 458.7656,1172.125 458.5469,1171.9531 C458.375,1171.8281 458.2344,1171.7969 457.7813,1171.7969 L457.3906,1171.7969 L457.7813,1170.8125 L461.8281,1170.8125 Z M461.125,1169.1094 L458.4531,1169.1094 L459.7969,1165.8438 L461.125,1169.1094 Z " fill="#000000"/><text fill="#000000" font-family="sans-serif" font-size="14" font-style="italic" lengthAdjust="spacing" textLength="71" x="479.25" y="1173.8467">utilisateur</text><line style="stroke:#181818;stroke-width:0.5;" x1="421" x2="577" y1="1185" y2="1185"/><text fill="#000000" font-family="sans-serif" font-size="14" lengthAdjust="spacing" textLength="98" x="426" y="1201.9951">nom : varchar</text><text fill="#000000" font-family="sans-serif" font-size="14" lengthAdjust="spacing" textLength="123" x="426" y="1218.292">prenom : varchar</text><text fill="#000000" font-family="sans-serif" font-size="14" lengthAdjust="spacing" textLength="86" x="426" y="1234.5889">tel : varchar</text><text fill="#000000" font-family="sans-serif" font-size="14" lengthAdjust="spacing" textLength="146" x="426" y="1250.8857">date_creation : date</text><text fill="#000000" font-family="sans-serif" font-size="14" lengthAdjust="spacing" textLength="116" x="426" y="1267.1826">statut : booleen</text><line style="stroke:#181818;stroke-width:0.5;" x1="421" x2="577" y1="1274.4844" y2="1274.4844"/></g><!--class groups--><g id="elem_groups"><rect codeLine="11" fill="#F1F1F1" height="80.5938" id="groups" rx="2.5" ry="2.5" style="stroke:#181818;stroke-width:0.5;" width="161" x="485.5" y="1012"/><ellipse cx="537.25" cy="1028" fill="#ADD1B2" rx="11" ry="11" style="stroke:#181818;stroke-width:1.0;"/><path d="M539.5938,1023.6719 C538.6563,1023.2344 538.0625,1023.0938 537.1875,1023.0938 C534.5625,1023.0938 532.5625,1025.1719 532.5625,1027.8906 L532.5625,1029.0156 C532.5625,1031.5938 534.6719,1033.4844 537.5625,1033.4844 C538.7813,1033.4844 539.9375,1033.1875 540.6875,1032.6406 C541.2656,1032.2344 541.5938,1031.7813 541.5938,1031.3906 C541.5938,1030.9375 541.2031,1030.5469 540.7344,1030.5469 C540.5156,1030.5469 540.3125,1030.625 540.125,1030.8125 C539.6719,1031.2969 539.6719,1031.2969 539.4844,1031.3906 C539.0625,1031.6563 538.375,1031.7813 537.6094,1031.7813 C535.5625,1031.7813 534.2656,1030.6875 534.2656,1028.9844 L534.2656,1027.8906 C534.2656,1026.1094 535.5156,1024.7969 537.25,1024.7969 C537.8281,1024.7969 538.4375,1024.9531 538.9063,1025.2031 C539.3906,1025.4844 539.5625,1025.7031 539.6563,1026.1094 C539.7188,1026.5156 539.75,1026.6406 539.8906,1026.7656 C540.0313,1026.9063 540.2656,1027.0156 540.4844,1027.0156 C540.75,1027.0156 541.0156,1026.875 541.1875,1026.6563 C541.2969,1026.5 541.3281,1026.3125 541.3281,1025.8906 L541.3281,1024.4688 C541.3281,1024.0313 541.3125,1023.9063 541.2188,1023.75 C541.0625,1023.4844 540.7813,1023.3438 540.4844,1023.3438 C540.1875,1023.3438 539.9844,1023.4375 539.7656,1023.75 L539.5938,1023.6719 Z " fill="#000000"/><text fill="#000000" font-family="sans-serif" font-size="14" lengthAdjust="spacing" textLength="49" x="557.75" y="1032.8467">groups</text><line style="stroke:#181818;stroke-width:0.5;" x1="486.5" x2="645.5" y1="1044" y2="1044"/><text fill="#000000" font-family="sans-serif" font-size="14" lengthAdjust="spacing" textLength="137" x="491.5" y="1060.9951">groupsUid : varchar</text><text fill="#000000" font-family="sans-serif" font-size="14" lengthAdjust="spacing" textLength="149" x="491.5" y="1077.292">groupName : varchar</text><line style="stroke:#181818;stroke-width:0.5;" x1="486.5" x2="645.5" y1="1084.5938" y2="1084.5938"/></g><!--class userOrg--><g id="elem_userOrg"><rect codeLine="16" fill="#F1F1F1" height="64.2969" id="userOrg" rx="2.5" ry="2.5" style="stroke:#181818;stroke-width:0.5;" width="91" x="227.5" y="1020.5"/><ellipse cx="243.85" cy="1036.5" fill="#ADD1B2" rx="11" ry="11" style="stroke:#181818;stroke-width:1.0;"/><path d="M246.1938,1032.1719 C245.2563,1031.7344 244.6625,1031.5938 243.7875,1031.5938 C241.1625,1031.5938 239.1625,1033.6719 239.1625,1036.3906 L239.1625,1037.5156 C239.1625,1040.0938 241.2719,1041.9844 244.1625,1041.9844 C245.3813,1041.9844 246.5375,1041.6875 247.2875,1041.1406 C247.8656,1040.7344 248.1938,1040.2813 248.1938,1039.8906 C248.1938,1039.4375 247.8031,1039.0469 247.3344,1039.0469 C247.1156,1039.0469 246.9125,1039.125 246.725,1039.3125 C246.2719,1039.7969 246.2719,1039.7969 246.0844,1039.8906 C245.6625,1040.1563 244.975,1040.2813 244.2094,1040.2813 C242.1625,1040.2813 240.8656,1039.1875 240.8656,1037.4844 L240.8656,1036.3906 C240.8656,1034.6094 242.1156,1033.2969 243.85,1033.2969 C244.4281,1033.2969 245.0375,1033.4531 245.5063,1033.7031 C245.9906,1033.9844 246.1625,1034.2031 246.2563,1034.6094 C246.3188,1035.0156 246.35,1035.1406 246.4906,1035.2656 C246.6313,1035.4063 246.8656,1035.5156 247.0844,1035.5156 C247.35,1035.5156 247.6156,1035.375 247.7875,1035.1563 C247.8969,1035 247.9281,1034.8125 247.9281,1034.3906 L247.9281,1032.9688 C247.9281,1032.5313 247.9125,1032.4063 247.8188,1032.25 C247.6625,1031.9844 247.3813,1031.8438 247.0844,1031.8438 C246.7875,1031.8438 246.5844,1031.9375 246.3656,1032.25 L246.1938,1032.1719 Z " fill="#000000"/><text fill="#000000" font-family="sans-serif" font-size="14" lengthAdjust="spacing" textLength="56" x="258.15" y="1041.3467">userOrg</text><line style="stroke:#181818;stroke-width:0.5;" x1="228.5" x2="317.5" y1="1052.5" y2="1052.5"/><text fill="#000000" font-family="sans-serif" font-size="14" lengthAdjust="spacing" textLength="79" x="233.5" y="1069.4951">orgUid : int</text><line style="stroke:#181818;stroke-width:0.5;" x1="228.5" x2="317.5" y1="1076.7969" y2="1076.7969"/></g><!--class identifiants--><g id="elem_identifiants"><rect codeLine="20" fill="#F1F1F1" height="80.5938" id="identifiants" rx="2.5" ry="2.5" style="stroke:#181818;stroke-width:0.5;" width="181" x="681.5" y="1012"/><ellipse cx="726.25" cy="1028" fill="#ADD1B2" rx="11" ry="11" style="stroke:#181818;stroke-width:1.0;"/><path d="M728.5938,1023.6719 C727.6563,1023.2344 727.0625,1023.0938 726.1875,1023.0938 C723.5625,1023.0938 721.5625,1025.1719 721.5625,1027.8906 L721.5625,1029.0156 C721.5625,1031.5938 723.6719,1033.4844 726.5625,1033.4844 C727.7813,1033.4844 728.9375,1033.1875 729.6875,1032.6406 C730.2656,1032.2344 730.5938,1031.7813 730.5938,1031.3906 C730.5938,1030.9375 730.2031,1030.5469 729.7344,1030.5469 C729.5156,1030.5469 729.3125,1030.625 729.125,1030.8125 C728.6719,1031.2969 728.6719,1031.2969 728.4844,1031.3906 C728.0625,1031.6563 727.375,1031.7813 726.6094,1031.7813 C724.5625,1031.7813 723.2656,1030.6875 723.2656,1028.9844 L723.2656,1027.8906 C723.2656,1026.1094 724.5156,1024.7969 726.25,1024.7969 C726.8281,1024.7969 727.4375,1024.9531 727.9063,1025.2031 C728.3906,1025.4844 728.5625,1025.7031 728.6563,1026.1094 C728.7188,1026.5156 728.75,1026.6406 728.8906,1026.7656 C729.0313,1026.9063 729.2656,1027.0156 729.4844,1027.0156 C729.75,1027.0156 730.0156,1026.875 730.1875,1026.6563 C730.2969,1026.5 730.3281,1026.3125 730.3281,1025.8906 L730.3281,1024.4688 C730.3281,1024.0313 730.3125,1023.9063 730.2188,1023.75 C730.0625,1023.4844 729.7813,1023.3438 729.4844,1023.3438 C729.1875,1023.3438 728.9844,1023.4375 728.7656,1023.75 L728.5938,1023.6719 Z " fill="#000000"/><text fill="#000000" font-family="sans-serif" font-size="14" lengthAdjust="spacing" textLength="83" x="746.75" y="1032.8467">identifiants</text><line style="stroke:#181818;stroke-width:0.5;" x1="682.5" x2="861.5" y1="1044" y2="1044"/><text fill="#000000" font-family="sans-serif" font-size="14" lengthAdjust="spacing" textLength="105" x="687.5" y="1060.9951">email : varchar</text><text fill="#000000" font-family="sans-serif" font-size="14" lengthAdjust="spacing" textLength="169" x="687.5" y="1077.292">mot_de_passe : varchar</text><line style="stroke:#181818;stroke-width:0.5;" x1="682.5" x2="861.5" y1="1084.5938" y2="1084.5938"/></g><!--class organisation--><g id="elem_organisation"><rect codeLine="25" fill="#F1F1F1" height="113.1875" id="organisation" rx="2.5" ry="2.5" style="stroke:#181818;stroke-width:0.5;" width="128" x="7" y="839"/><ellipse cx="25.15" cy="855" fill="#ADD1B2" rx="11" ry="11" style="stroke:#181818;stroke-width:1.0;"/><path d="M27.4938,850.6719 C26.5563,850.2344 25.9625,850.0938 25.0875,850.0938 C22.4625,850.0938 20.4625,852.1719 20.4625,854.8906 L20.4625,856.0156 C20.4625,858.5938 22.5719,860.4844 25.4625,860.4844 C26.6813,860.4844 27.8375,860.1875 28.5875,859.6406 C29.1656,859.2344 29.4938,858.7813 29.4938,858.3906 C29.4938,857.9375 29.1031,857.5469 28.6344,857.5469 C28.4156,857.5469 28.2125,857.625 28.025,857.8125 C27.5719,858.2969 27.5719,858.2969 27.3844,858.3906 C26.9625,858.6563 26.275,858.7813 25.5094,858.7813 C23.4625,858.7813 22.1656,857.6875 22.1656,855.9844 L22.1656,854.8906 C22.1656,853.1094 23.4156,851.7969 25.15,851.7969 C25.7281,851.7969 26.3375,851.9531 26.8063,852.2031 C27.2906,852.4844 27.4625,852.7031 27.5563,853.1094 C27.6188,853.5156 27.65,853.6406 27.7906,853.7656 C27.9313,853.9063 28.1656,854.0156 28.3844,854.0156 C28.65,854.0156 28.9156,853.875 29.0875,853.6563 C29.1969,853.5 29.2281,853.3125 29.2281,852.8906 L29.2281,851.4688 C29.2281,851.0313 29.2125,850.9063 29.1188,850.75 C28.9625,850.4844 28.6813,850.3438 28.3844,850.3438 C28.0875,850.3438 27.8844,850.4375 27.6656,850.75 L27.4938,850.6719 Z " fill="#000000"/><text fill="#000000" font-family="sans-serif" font-size="14" lengthAdjust="spacing" textLength="89" x="39.85" y="859.8467">organisation</text><line style="stroke:#181818;stroke-width:0.5;" x1="8" x2="134" y1="871" y2="871"/><text fill="#000000" font-family="sans-serif" font-size="14" lengthAdjust="spacing" textLength="116" x="13" y="887.9951">siren : int {key}</text><text fill="#000000" font-family="sans-serif" font-size="14" lengthAdjust="spacing" textLength="98" x="13" y="904.292">nom : varchar</text><text fill="#000000" font-family="sans-serif" font-size="14" lengthAdjust="spacing" textLength="112" x="13" y="920.5889">type : type_org</text><text fill="#000000" font-family="sans-serif" font-size="14" lengthAdjust="spacing" textLength="106" x="13" y="936.8857">siege : adresse</text><line style="stroke:#181818;stroke-width:0.5;" x1="8" x2="134" y1="944.1875" y2="944.1875"/></g><!--class type_org--><g id="elem_type_org"><rect codeLine="31" fill="#F1F1F1" height="194.6719" id="type_org" rx="2.5" ry="2.5" style="stroke:#181818;stroke-width:0.5;" width="97" x="628.5" y="7"/><ellipse cx="643.5" cy="23" fill="#EB937F" rx="11" ry="11" style="stroke:#181818;stroke-width:1.0;"/><path d="M642.2969,23.875 L643.75,23.875 L643.75,23.9844 C643.75,24.3906 643.7813,24.5469 643.8594,24.7031 C644.0156,24.9531 644.2969,25.1094 644.5938,25.1094 C644.8438,25.1094 645.1094,24.9688 645.2656,24.75 C645.3906,24.5938 645.4219,24.4375 645.4219,23.9844 L645.4219,22.0625 C645.4219,21.9063 645.4219,21.8594 645.4063,21.7031 C645.3438,21.2344 645.0313,20.9219 644.5781,20.9219 C644.3281,20.9219 644.0625,21.0625 643.8906,21.2813 C643.7813,21.4531 643.75,21.6094 643.75,22.0625 L643.75,22.1875 L642.2969,22.1875 L642.2969,19.7813 L646.2813,19.7813 L646.2813,20.6406 C646.2813,21.0469 646.3125,21.2188 646.3906,21.375 C646.5625,21.625 646.8438,21.7813 647.125,21.7813 C647.3906,21.7813 647.6563,21.6406 647.8281,21.4219 C647.9375,21.25 647.9688,21.1094 647.9688,20.6406 L647.9688,18.0938 L640.3438,18.0938 C639.9063,18.0938 639.7813,18.1094 639.625,18.2031 C639.375,18.3594 639.2188,18.6563 639.2188,18.9375 C639.2188,19.2188 639.3594,19.4688 639.5781,19.6406 C639.7344,19.75 639.9219,19.7813 640.3438,19.7813 L640.5938,19.7813 L640.5938,26.2969 L640.3438,26.2969 C639.9375,26.2969 639.7813,26.3125 639.625,26.4219 C639.375,26.5938 639.2188,26.8594 639.2188,27.1563 C639.2188,27.4219 639.3594,27.6719 639.5781,27.8281 C639.7188,27.9531 639.9531,28 640.3438,28 L648.3438,28 L648.3438,25.4219 C648.3438,24.9844 648.3125,24.8438 648.2344,24.6875 C648.0625,24.4375 647.7813,24.2813 647.5,24.2813 C647.2344,24.2813 646.9688,24.3906 646.7969,24.6406 C646.6875,24.7969 646.6563,24.9375 646.6563,25.4219 L646.6563,26.2969 L642.2969,26.2969 L642.2969,23.875 Z " fill="#000000"/><text fill="#000000" font-family="sans-serif" font-size="14" lengthAdjust="spacing" textLength="65" x="657.5" y="27.8467">type_org</text><line style="stroke:#181818;stroke-width:0.5;" x1="629.5" x2="724.5" y1="39" y2="39"/><text fill="#000000" font-family="sans-serif" font-size="14" lengthAdjust="spacing" textLength="13" x="634.5" y="55.9951">EI</text><text fill="#000000" font-family="sans-serif" font-size="14" lengthAdjust="spacing" textLength="36" x="634.5" y="72.292">EURL</text><text fill="#000000" font-family="sans-serif" font-size="14" lengthAdjust="spacing" textLength="37" x="634.5" y="88.5889">SARL</text><text fill="#000000" font-family="sans-serif" font-size="14" lengthAdjust="spacing" textLength="37" x="634.5" y="104.8857">SASU</text><text fill="#000000" font-family="sans-serif" font-size="14" lengthAdjust="spacing" textLength="28" x="634.5" y="121.1826">SAS</text><text fill="#000000" font-family="sans-serif" font-size="14" lengthAdjust="spacing" textLength="19" x="634.5" y="137.4795">SA</text><text fill="#000000" font-family="sans-serif" font-size="14" lengthAdjust="spacing" textLength="29" x="634.5" y="153.7764">SNC</text><text fill="#000000" font-family="sans-serif" font-size="14" lengthAdjust="spacing" textLength="28" x="634.5" y="170.0732">SCS</text><text fill="#000000" font-family="sans-serif" font-size="14" lengthAdjust="spacing" textLength="29" x="634.5" y="186.3701">SCA</text><line style="stroke:#181818;stroke-width:0.5;" x1="629.5" x2="724.5" y1="193.6719" y2="193.6719"/></g><!--class positions_type--><g id="elem_positions_type"><rect codeLine="43" fill="#F1F1F1" height="129.4844" id="positions_type" rx="2.5" ry="2.5" style="stroke:#181818;stroke-width:0.5;" width="139" x="760.5" y="40"/><ellipse cx="775.5" cy="56" fill="#EB937F" rx="11" ry="11" style="stroke:#181818;stroke-width:1.0;"/><path d="M774.2969,56.875 L775.75,56.875 L775.75,56.9844 C775.75,57.3906 775.7813,57.5469 775.8594,57.7031 C776.0156,57.9531 776.2969,58.1094 776.5938,58.1094 C776.8438,58.1094 777.1094,57.9688 777.2656,57.75 C777.3906,57.5938 777.4219,57.4375 777.4219,56.9844 L777.4219,55.0625 C777.4219,54.9063 777.4219,54.8594 777.4063,54.7031 C777.3438,54.2344 777.0313,53.9219 776.5781,53.9219 C776.3281,53.9219 776.0625,54.0625 775.8906,54.2813 C775.7813,54.4531 775.75,54.6094 775.75,55.0625 L775.75,55.1875 L774.2969,55.1875 L774.2969,52.7813 L778.2813,52.7813 L778.2813,53.6406 C778.2813,54.0469 778.3125,54.2188 778.3906,54.375 C778.5625,54.625 778.8438,54.7813 779.125,54.7813 C779.3906,54.7813 779.6563,54.6406 779.8281,54.4219 C779.9375,54.25 779.9688,54.1094 779.9688,53.6406 L779.9688,51.0938 L772.3438,51.0938 C771.9063,51.0938 771.7813,51.1094 771.625,51.2031 C771.375,51.3594 771.2188,51.6563 771.2188,51.9375 C771.2188,52.2188 771.3594,52.4688 771.5781,52.6406 C771.7344,52.75 771.9219,52.7813 772.3438,52.7813 L772.5938,52.7813 L772.5938,59.2969 L772.3438,59.2969 C771.9375,59.2969 771.7813,59.3125 771.625,59.4219 C771.375,59.5938 771.2188,59.8594 771.2188,60.1563 C771.2188,60.4219 771.3594,60.6719 771.5781,60.8281 C771.7188,60.9531 771.9531,61 772.3438,61 L780.3438,61 L780.3438,58.4219 C780.3438,57.9844 780.3125,57.8438 780.2344,57.6875 C780.0625,57.4375 779.7813,57.2813 779.5,57.2813 C779.2344,57.2813 778.9688,57.3906 778.7969,57.6406 C778.6875,57.7969 778.6563,57.9375 778.6563,58.4219 L778.6563,59.2969 L774.2969,59.2969 L774.2969,56.875 Z " fill="#000000"/><text fill="#000000" font-family="sans-serif" font-size="14" lengthAdjust="spacing" textLength="107" x="789.5" y="60.8467">positions_type</text><line style="stroke:#181818;stroke-width:0.5;" x1="761.5" x2="898.5" y1="72" y2="72"/><text fill="#000000" font-family="sans-serif" font-size="14" lengthAdjust="spacing" textLength="81" x="766.5" y="88.9951">BROUILLON</text><text fill="#000000" font-family="sans-serif" font-size="14" lengthAdjust="spacing" textLength="58" x="766.5" y="105.292">DEPOS&#201;</text><text fill="#000000" font-family="sans-serif" font-size="14" lengthAdjust="spacing" textLength="66" x="766.5" y="121.5889">ACCEPT&#201;</text><text fill="#000000" font-family="sans-serif" font-size="14" lengthAdjust="spacing" textLength="54" x="766.5" y="137.8857">REFUS&#201;</text><text fill="#000000" font-family="sans-serif" font-size="14" lengthAdjust="spacing" textLength="59" x="766.5" y="154.1826">MODIFI&#201;</text><line style="stroke:#181818;stroke-width:0.5;" x1="761.5" x2="898.5" y1="161.4844" y2="161.4844"/></g><!--class adresse--><g id="elem_adresse"><rect codeLine="51" fill="#F1F1F1" height="137.75" id="adresse" rx="2.5" ry="2.5" style="stroke:#181818;stroke-width:0.5;" width="141" x="606.5" y="262"/><ellipse cx="640.4" cy="282.1328" fill="#FF7700" rx="11" ry="11" style="stroke:#181818;stroke-width:1.0;"/><path d="M637.9156,285.4297 C637.2594,285.4297 636.8688,285.7422 636.8688,286.2891 C636.8688,286.5391 637.0094,286.8047 637.2281,286.9609 C637.3844,287.0859 637.6031,287.1328 638.0094,287.1328 L641.4781,287.1328 C642.9625,287.1328 643.9781,286.7422 644.8063,285.8516 C645.5875,285.0391 645.9938,283.9922 645.9938,282.7422 L645.9938,281.9453 C645.9938,279.2734 644.1031,277.2266 641.6188,277.2266 L638.0094,277.2266 C637.5563,277.2266 637.4313,277.2422 637.275,277.3359 C637.025,277.4922 636.8688,277.7891 636.8688,278.0703 C636.8688,278.6172 637.2438,278.9141 637.9156,278.9141 L637.9156,285.4297 Z M639.6031,285.4297 L639.6031,278.9141 L641.4781,278.9141 C642.3844,278.9141 643.025,279.1953 643.5406,279.7891 C644.025,280.3672 644.3063,281.1172 644.3063,281.9141 L644.3063,282.6953 C644.3063,283.5703 644.0719,284.1641 643.6031,284.6797 C643.0719,285.2266 642.5094,285.4297 641.4938,285.4297 L639.6031,285.4297 Z " fill="#000000"/><text fill="#000000" font-family="sans-serif" font-size="12" font-style="italic" lengthAdjust="spacing" textLength="71" x="656.6" y="278.1387">&#171;DataType&#187;</text><text fill="#000000" font-family="sans-serif" font-size="14" lengthAdjust="spacing" textLength="55" x="664.6" y="293.9639">adresse</text><line style="stroke:#181818;stroke-width:0.5;" x1="607.5" x2="746.5" y1="302.2656" y2="302.2656"/><text fill="#000000" font-family="sans-serif" font-size="14" lengthAdjust="spacing" textLength="126" x="612.5" y="319.2607">num_adresse : int</text><text fill="#000000" font-family="sans-serif" font-size="14" lengthAdjust="spacing" textLength="89" x="612.5" y="335.5576">rue : varchar</text><text fill="#000000" font-family="sans-serif" font-size="14" lengthAdjust="spacing" textLength="129" x="612.5" y="351.8545">code_postale : int</text><text fill="#000000" font-family="sans-serif" font-size="14" lengthAdjust="spacing" textLength="95" x="612.5" y="368.1514">ville : varchar</text><text fill="#000000" font-family="sans-serif" font-size="14" lengthAdjust="spacing" textLength="99" x="612.5" y="384.4482">pays : varchar</text><line style="stroke:#181818;stroke-width:0.5;" x1="607.5" x2="746.5" y1="391.75" y2="391.75"/></g><!--class offre--><g id="elem_offre"><rect codeLine="59" fill="#F1F1F1" height="113.1875" id="offre" rx="2.5" ry="2.5" style="stroke:#181818;stroke-width:0.5;" width="195" x="183.5" y="460"/><ellipse cx="258.75" cy="476" fill="#ADD1B2" rx="11" ry="11" style="stroke:#181818;stroke-width:1.0;"/><path d="M261.0938,471.6719 C260.1563,471.2344 259.5625,471.0938 258.6875,471.0938 C256.0625,471.0938 254.0625,473.1719 254.0625,475.8906 L254.0625,477.0156 C254.0625,479.5938 256.1719,481.4844 259.0625,481.4844 C260.2813,481.4844 261.4375,481.1875 262.1875,480.6406 C262.7656,480.2344 263.0938,479.7813 263.0938,479.3906 C263.0938,478.9375 262.7031,478.5469 262.2344,478.5469 C262.0156,478.5469 261.8125,478.625 261.625,478.8125 C261.1719,479.2969 261.1719,479.2969 260.9844,479.3906 C260.5625,479.6563 259.875,479.7813 259.1094,479.7813 C257.0625,479.7813 255.7656,478.6875 255.7656,476.9844 L255.7656,475.8906 C255.7656,474.1094 257.0156,472.7969 258.75,472.7969 C259.3281,472.7969 259.9375,472.9531 260.4063,473.2031 C260.8906,473.4844 261.0625,473.7031 261.1563,474.1094 C261.2188,474.5156 261.25,474.6406 261.3906,474.7656 C261.5313,474.9063 261.7656,475.0156 261.9844,475.0156 C262.25,475.0156 262.5156,474.875 262.6875,474.6563 C262.7969,474.5 262.8281,474.3125 262.8281,473.8906 L262.8281,472.4688 C262.8281,472.0313 262.8125,471.9063 262.7188,471.75 C262.5625,471.4844 262.2813,471.3438 261.9844,471.3438 C261.6875,471.3438 261.4844,471.4375 261.2656,471.75 L261.0938,471.6719 Z " fill="#000000"/><text fill="#000000" font-family="sans-serif" font-size="14" lengthAdjust="spacing" textLength="36" x="279.25" y="480.8467">offre</text><line style="stroke:#181818;stroke-width:0.5;" x1="184.5" x2="377.5" y1="492" y2="492"/><text fill="#000000" font-family="sans-serif" font-size="14" lengthAdjust="spacing" textLength="118" x="189.5" y="508.9951">etat : etat_offre</text><text fill="#000000" font-family="sans-serif" font-size="14" lengthAdjust="spacing" textLength="139" x="189.5" y="525.292">date_validite : date</text><text fill="#000000" font-family="sans-serif" font-size="14" lengthAdjust="spacing" textLength="183" x="189.5" y="541.5889">pieces_demandees : Text</text><text fill="#000000" font-family="sans-serif" font-size="14" lengthAdjust="spacing" textLength="180" x="189.5" y="557.8857">nb_pieces_demande : int</text><line style="stroke:#181818;stroke-width:0.5;" x1="184.5" x2="377.5" y1="565.1875" y2="565.1875"/></g><!--class etat_offre--><g id="elem_etat_offre"><rect codeLine="66" fill="#F1F1F1" height="96.8906" id="etat_offre" rx="2.5" ry="2.5" style="stroke:#181818;stroke-width:0.5;" width="106" x="783" y="282.5"/><ellipse cx="798" cy="298.5" fill="#EB937F" rx="11" ry="11" style="stroke:#181818;stroke-width:1.0;"/><path d="M796.7969,299.375 L798.25,299.375 L798.25,299.4844 C798.25,299.8906 798.2813,300.0469 798.3594,300.2031 C798.5156,300.4531 798.7969,300.6094 799.0938,300.6094 C799.3438,300.6094 799.6094,300.4688 799.7656,300.25 C799.8906,300.0938 799.9219,299.9375 799.9219,299.4844 L799.9219,297.5625 C799.9219,297.4063 799.9219,297.3594 799.9063,297.2031 C799.8438,296.7344 799.5313,296.4219 799.0781,296.4219 C798.8281,296.4219 798.5625,296.5625 798.3906,296.7813 C798.2813,296.9531 798.25,297.1094 798.25,297.5625 L798.25,297.6875 L796.7969,297.6875 L796.7969,295.2813 L800.7813,295.2813 L800.7813,296.1406 C800.7813,296.5469 800.8125,296.7188 800.8906,296.875 C801.0625,297.125 801.3438,297.2813 801.625,297.2813 C801.8906,297.2813 802.1563,297.1406 802.3281,296.9219 C802.4375,296.75 802.4688,296.6094 802.4688,296.1406 L802.4688,293.5938 L794.8438,293.5938 C794.4063,293.5938 794.2813,293.6094 794.125,293.7031 C793.875,293.8594 793.7188,294.1563 793.7188,294.4375 C793.7188,294.7188 793.8594,294.9688 794.0781,295.1406 C794.2344,295.25 794.4219,295.2813 794.8438,295.2813 L795.0938,295.2813 L795.0938,301.7969 L794.8438,301.7969 C794.4375,301.7969 794.2813,301.8125 794.125,301.9219 C793.875,302.0938 793.7188,302.3594 793.7188,302.6563 C793.7188,302.9219 793.8594,303.1719 794.0781,303.3281 C794.2188,303.4531 794.4531,303.5 794.8438,303.5 L802.8438,303.5 L802.8438,300.9219 C802.8438,300.4844 802.8125,300.3438 802.7344,300.1875 C802.5625,299.9375 802.2813,299.7813 802,299.7813 C801.7344,299.7813 801.4688,299.8906 801.2969,300.1406 C801.1875,300.2969 801.1563,300.4375 801.1563,300.9219 L801.1563,301.7969 L796.7969,301.7969 L796.7969,299.375 Z " fill="#000000"/><text fill="#000000" font-family="sans-serif" font-size="14" lengthAdjust="spacing" textLength="74" x="812" y="303.3467">etat_offre</text><line style="stroke:#181818;stroke-width:0.5;" x1="784" x2="888" y1="314.5" y2="314.5"/><text fill="#000000" font-family="sans-serif" font-size="14" lengthAdjust="spacing" textLength="85" x="789" y="331.4951">non publi&#233;e</text><text fill="#000000" font-family="sans-serif" font-size="14" lengthAdjust="spacing" textLength="54" x="789" y="347.792">publi&#233;e</text><text fill="#000000" font-family="sans-serif" font-size="14" lengthAdjust="spacing" textLength="55" x="789" y="364.0889">expir&#233;e</text><line style="stroke:#181818;stroke-width:0.5;" x1="784" x2="888" y1="371.3906" y2="371.3906"/></g><!--class fiche_poste--><g id="elem_fiche_poste"><rect codeLine="72" fill="#F1F1F1" height="145.7813" id="fiche_poste" rx="2.5" ry="2.5" style="stroke:#181818;stroke-width:0.5;" width="171" x="207.5" y="633"/><ellipse cx="246.8" cy="649" fill="#ADD1B2" rx="11" ry="11" style="stroke:#181818;stroke-width:1.0;"/><path d="M249.1438,644.6719 C248.2063,644.2344 247.6125,644.0938 246.7375,644.0938 C244.1125,644.0938 242.1125,646.1719 242.1125,648.8906 L242.1125,650.0156 C242.1125,652.5938 244.2219,654.4844 247.1125,654.4844 C248.3313,654.4844 249.4875,654.1875 250.2375,653.6406 C250.8156,653.2344 251.1438,652.7813 251.1438,652.3906 C251.1438,651.9375 250.7531,651.5469 250.2844,651.5469 C250.0656,651.5469 249.8625,651.625 249.675,651.8125 C249.2219,652.2969 249.2219,652.2969 249.0344,652.3906 C248.6125,652.6563 247.925,652.7813 247.1594,652.7813 C245.1125,652.7813 243.8156,651.6875 243.8156,649.9844 L243.8156,648.8906 C243.8156,647.1094 245.0656,645.7969 246.8,645.7969 C247.3781,645.7969 247.9875,645.9531 248.4563,646.2031 C248.9406,646.4844 249.1125,646.7031 249.2063,647.1094 C249.2688,647.5156 249.3,647.6406 249.4406,647.7656 C249.5813,647.9063 249.8156,648.0156 250.0344,648.0156 C250.3,648.0156 250.5656,647.875 250.7375,647.6563 C250.8469,647.5 250.8781,647.3125 250.8781,646.8906 L250.8781,645.4688 C250.8781,645.0313 250.8625,644.9063 250.7688,644.75 C250.6125,644.4844 250.3313,644.3438 250.0344,644.3438 C249.7375,644.3438 249.5344,644.4375 249.3156,644.75 L249.1438,644.6719 Z " fill="#000000"/><text fill="#000000" font-family="sans-serif" font-size="14" lengthAdjust="spacing" textLength="85" x="266.2" y="653.8467">fiche_poste</text><line style="stroke:#181818;stroke-width:0.5;" x1="208.5" x2="377.5" y1="665" y2="665"/><text fill="#000000" font-family="sans-serif" font-size="14" lengthAdjust="spacing" textLength="96" x="213.5" y="681.9951">intitule : text</text><text fill="#000000" font-family="sans-serif" font-size="14" lengthAdjust="spacing" textLength="159" x="213.5" y="698.292">statut_poste : varchar</text><text fill="#000000" font-family="sans-serif" font-size="14" lengthAdjust="spacing" textLength="154" x="213.5" y="714.5889">responsable : varchar</text><text fill="#000000" font-family="sans-serif" font-size="14" lengthAdjust="spacing" textLength="156" x="213.5" y="730.8857">type_metier : varchar</text><text fill="#000000" font-family="sans-serif" font-size="14" lengthAdjust="spacing" textLength="154" x="213.5" y="747.1826">lieu_mission : adresse</text><text fill="#000000" font-family="sans-serif" font-size="14" lengthAdjust="spacing" textLength="119" x="213.5" y="763.4795">rythme : varchar</text><line style="stroke:#181818;stroke-width:0.5;" x1="208.5" x2="377.5" y1="770.7813" y2="770.7813"/></g><!--class gestionOffre--><g id="elem_gestionOffre"><rect codeLine="81" fill="#F1F1F1" height="96.8906" id="gestionOffre" rx="2.5" ry="2.5" style="stroke:#181818;stroke-width:0.5;" width="124" x="48" y="657.5"/><ellipse cx="63" cy="673.5" fill="#ADD1B2" rx="11" ry="11" style="stroke:#181818;stroke-width:1.0;"/><path d="M65.3438,669.1719 C64.4063,668.7344 63.8125,668.5938 62.9375,668.5938 C60.3125,668.5938 58.3125,670.6719 58.3125,673.3906 L58.3125,674.5156 C58.3125,677.0938 60.4219,678.9844 63.3125,678.9844 C64.5313,678.9844 65.6875,678.6875 66.4375,678.1406 C67.0156,677.7344 67.3438,677.2813 67.3438,676.8906 C67.3438,676.4375 66.9531,676.0469 66.4844,676.0469 C66.2656,676.0469 66.0625,676.125 65.875,676.3125 C65.4219,676.7969 65.4219,676.7969 65.2344,676.8906 C64.8125,677.1563 64.125,677.2813 63.3594,677.2813 C61.3125,677.2813 60.0156,676.1875 60.0156,674.4844 L60.0156,673.3906 C60.0156,671.6094 61.2656,670.2969 63,670.2969 C63.5781,670.2969 64.1875,670.4531 64.6563,670.7031 C65.1406,670.9844 65.3125,671.2031 65.4063,671.6094 C65.4688,672.0156 65.5,672.1406 65.6406,672.2656 C65.7813,672.4063 66.0156,672.5156 66.2344,672.5156 C66.5,672.5156 66.7656,672.375 66.9375,672.1563 C67.0469,672 67.0781,671.8125 67.0781,671.3906 L67.0781,669.9688 C67.0781,669.5313 67.0625,669.4063 66.9688,669.25 C66.8125,668.9844 66.5313,668.8438 66.2344,668.8438 C65.9375,668.8438 65.7344,668.9375 65.5156,669.25 L65.3438,669.1719 Z " fill="#000000"/><text fill="#000000" font-family="sans-serif" font-size="14" lengthAdjust="spacing" textLength="92" x="77" y="678.3467">gestionOffre</text><line style="stroke:#181818;stroke-width:0.5;" x1="49" x2="171" y1="689.5" y2="689.5"/><line style="stroke:#181818;stroke-width:0.5;" x1="49" x2="171" y1="697.5" y2="697.5"/><text fill="#000000" font-family="sans-serif" font-size="14" lengthAdjust="spacing" textLength="46" x="54" y="714.4951">ajout()</text><text fill="#000000" font-family="sans-serif" font-size="14" lengthAdjust="spacing" textLength="96" x="54" y="730.792">suppression()</text><text fill="#000000" font-family="sans-serif" font-size="14" lengthAdjust="spacing" textLength="101" x="54" y="747.0889">modification()</text></g><!--class candidature--><g id="elem_candidature"><rect codeLine="87" fill="#F1F1F1" height="80.5938" id="candidature" rx="2.5" ry="2.5" style="stroke:#181818;stroke-width:0.5;" width="178" x="393" y="290.5"/><ellipse cx="435.45" cy="306.5" fill="#ADD1B2" rx="11" ry="11" style="stroke:#181818;stroke-width:1.0;"/><path d="M437.7938,302.1719 C436.8563,301.7344 436.2625,301.5938 435.3875,301.5938 C432.7625,301.5938 430.7625,303.6719 430.7625,306.3906 L430.7625,307.5156 C430.7625,310.0938 432.8719,311.9844 435.7625,311.9844 C436.9813,311.9844 438.1375,311.6875 438.8875,311.1406 C439.4656,310.7344 439.7938,310.2813 439.7938,309.8906 C439.7938,309.4375 439.4031,309.0469 438.9344,309.0469 C438.7156,309.0469 438.5125,309.125 438.325,309.3125 C437.8719,309.7969 437.8719,309.7969 437.6844,309.8906 C437.2625,310.1563 436.575,310.2813 435.8094,310.2813 C433.7625,310.2813 432.4656,309.1875 432.4656,307.4844 L432.4656,306.3906 C432.4656,304.6094 433.7156,303.2969 435.45,303.2969 C436.0281,303.2969 436.6375,303.4531 437.1063,303.7031 C437.5906,303.9844 437.7625,304.2031 437.8563,304.6094 C437.9188,305.0156 437.95,305.1406 438.0906,305.2656 C438.2313,305.4063 438.4656,305.5156 438.6844,305.5156 C438.95,305.5156 439.2156,305.375 439.3875,305.1563 C439.4969,305 439.5281,304.8125 439.5281,304.3906 L439.5281,302.9688 C439.5281,302.5313 439.5125,302.4063 439.4188,302.25 C439.2625,301.9844 438.9813,301.8438 438.6844,301.8438 C438.3875,301.8438 438.1844,301.9375 437.9656,302.25 L437.7938,302.1719 Z " fill="#000000"/><text fill="#000000" font-family="sans-serif" font-size="14" lengthAdjust="spacing" textLength="85" x="455.55" y="311.3467">candidature</text><line style="stroke:#181818;stroke-width:0.5;" x1="394" x2="570" y1="322.5" y2="322.5"/><text fill="#000000" font-family="sans-serif" font-size="14" lengthAdjust="spacing" textLength="166" x="399" y="339.4951">candidatureDate : date</text><text fill="#000000" font-family="sans-serif" font-size="14" lengthAdjust="spacing" textLength="164" x="399" y="355.792">status : positions_type</text><line style="stroke:#181818;stroke-width:0.5;" x1="394" x2="570" y1="363.0938" y2="363.0938"/></g><!--class documentsCandidature--><g id="elem_documentsCandidature"><rect codeLine="92" fill="#F1F1F1" height="80.5938" id="documentsCandidature" rx="2.5" ry="2.5" style="stroke:#181818;stroke-width:0.5;" width="199" x="382.5" y="64"/><ellipse cx="397.5" cy="80" fill="#ADD1B2" rx="11" ry="11" style="stroke:#181818;stroke-width:1.0;"/><path d="M399.8438,75.6719 C398.9063,75.2344 398.3125,75.0938 397.4375,75.0938 C394.8125,75.0938 392.8125,77.1719 392.8125,79.8906 L392.8125,81.0156 C392.8125,83.5938 394.9219,85.4844 397.8125,85.4844 C399.0313,85.4844 400.1875,85.1875 400.9375,84.6406 C401.5156,84.2344 401.8438,83.7813 401.8438,83.3906 C401.8438,82.9375 401.4531,82.5469 400.9844,82.5469 C400.7656,82.5469 400.5625,82.625 400.375,82.8125 C399.9219,83.2969 399.9219,83.2969 399.7344,83.3906 C399.3125,83.6563 398.625,83.7813 397.8594,83.7813 C395.8125,83.7813 394.5156,82.6875 394.5156,80.9844 L394.5156,79.8906 C394.5156,78.1094 395.7656,76.7969 397.5,76.7969 C398.0781,76.7969 398.6875,76.9531 399.1563,77.2031 C399.6406,77.4844 399.8125,77.7031 399.9063,78.1094 C399.9688,78.5156 400,78.6406 400.1406,78.7656 C400.2813,78.9063 400.5156,79.0156 400.7344,79.0156 C401,79.0156 401.2656,78.875 401.4375,78.6563 C401.5469,78.5 401.5781,78.3125 401.5781,77.8906 L401.5781,76.4688 C401.5781,76.0313 401.5625,75.9063 401.4688,75.75 C401.3125,75.4844 401.0313,75.3438 400.7344,75.3438 C400.4375,75.3438 400.2344,75.4375 400.0156,75.75 L399.8438,75.6719 Z " fill="#000000"/><text fill="#000000" font-family="sans-serif" font-size="14" lengthAdjust="spacing" textLength="167" x="411.5" y="84.8467">documentsCandidature</text><line style="stroke:#181818;stroke-width:0.5;" x1="383.5" x2="580.5" y1="96" y2="96"/><text fill="#000000" font-family="sans-serif" font-size="14" lengthAdjust="spacing" textLength="180" x="388.5" y="112.9951">documentName : varchar</text><text fill="#000000" font-family="sans-serif" font-size="14" lengthAdjust="spacing" textLength="172" x="388.5" y="129.292">documentPath : varchar</text><line style="stroke:#181818;stroke-width:0.5;" x1="383.5" x2="580.5" y1="136.5938" y2="136.5938"/></g><ellipse cx="356" cy="331" fill="#181818" rx="2" ry="2" style="stroke:#181818;stroke-width:1.0;"/><ellipse cx="11" cy="706" fill="#181818" rx="2" ry="2" style="stroke:#181818;stroke-width:1.0;"/><ellipse cx="190" cy="1052.5" fill="#181818" rx="2" ry="2" style="stroke:#181818;stroke-width:1.0;"/><!--reverse link identifiants to utilisateur--><g id="link_identifiants_utilisateur"><path codeLine="97" d="M694.057,1100.037 C657.822,1121.672 614.795,1147.362 578.383,1169.103 " fill="none" id="identifiants-backto-utilisateur" style="stroke:#181818;stroke-width:1.0;"/><polygon fill="#181818" points="705.566,1093.166,698.3638,1092.8082,695.2634,1099.3188,702.4656,1099.6766,705.566,1093.166" style="stroke:#181818;stroke-width:1.0;"/><text fill="#000000" font-family="sans-serif" font-size="13" lengthAdjust="spacing" textLength="8" x="586.0699" y="1161.0007">1</text></g><!--link groups to utilisateur--><g id="link_groups_utilisateur"><path codeLine="98" d="M549.61,1093.374 C542.249,1111.282 533.382,1132.854 525.14,1152.906 " fill="none" id="groups-utilisateur" style="stroke:#181818;stroke-width:1.0;"/><text fill="#000000" font-family="sans-serif" font-size="13" lengthAdjust="spacing" textLength="24" x="521.4402" y="1112.5854">1..n</text><text fill="#000000" font-family="sans-serif" font-size="13" lengthAdjust="spacing" textLength="8" x="519.5616" y="1142.0684">1</text></g><!--link documentsCandidature to candidature--><g id="link_documentsCandidature_candidature"><path codeLine="100" d="M482,145.12 C482,181.87 482,236.84 482,277.29 " fill="none" id="documentsCandidature-to-candidature" style="stroke:#181818;stroke-width:1.0;"/><polygon fill="#181818" points="482,290.4,486,284.4,482,278.4,478,284.4,482,290.4" style="stroke:#181818;stroke-width:1.0;"/><text fill="#000000" font-family="sans-serif" font-size="13" lengthAdjust="spacing" textLength="24" x="456.1625" y="164.5965">1..n</text></g><!--link utilisateur to apoint19--><g id="link_utilisateur_apoint19"><path d="M477.617,1152.962 C458.009,1088.973 432,987.033 432,896.5 C432,705 432,705 432,705 C432,594.942 422.298,566.87 396,460 C389.249,432.566 383.473,426.953 375,400 C366.619,373.339 358.096,340.229 356.331,333.306 " fill="none" id="utilisateur-apoint19" style="stroke:#181818;stroke-width:1.0;"/></g><!--link apoint19 to offre--><g id="link_apoint19_offre"><path d="M355.521,333.172 C351.591,342.787 324.29,409.584 303.862,459.564 " fill="none" id="apoint19-offre" style="stroke:#181818;stroke-width:1.0;"/></g><!--link apoint19 to candidature--><g id="link_apoint19_candidature"><path d="M358.461,331 C369.882,331 381.303,331 392.724,331 " fill="none" id="apoint19-candidature" style="stroke:#181818;stroke-width:1.0;stroke-dasharray:7.0,7.0;"/></g><!--reverse link offre to fiche_poste--><g id="link_offre_fiche_poste"><path codeLine="105" d="M285.401,586.271 C286.371,601.414 287.4,617.495 288.377,632.771 " fill="none" id="offre-backto-fiche_poste" style="stroke:#181818;stroke-width:1.0;"/><polygon fill="#181818" points="284.568,573.249,280.9599,579.4925,285.3355,585.2244,288.9436,578.9809,284.568,573.249" style="stroke:#181818;stroke-width:1.0;"/><text fill="#000000" font-family="sans-serif" font-size="13" lengthAdjust="spacing" textLength="8" x="279.5282" y="621.9084">1</text></g><!--link offre to apoint28--><g id="link_offre_apoint28"><path d="M183.26,540.599 C130.779,557.794 69.034,586.541 30,633 C10.7065,655.964 10.778,696.438 10.961,703.826 " fill="none" id="offre-apoint28" style="stroke:#181818;stroke-width:1.0;"/><text fill="#000000" font-family="sans-serif" font-size="13" lengthAdjust="spacing" textLength="24" x="151.5439" y="538.8311">0..n</text></g><!--link apoint28 to organisation--><g id="link_apoint28_organisation"><path d="M11.2363,708.024 C12.736,714.494 21.1493,750.343 30,779 C36.0593,798.619 43.3763,819.859 50.1418,838.71 " fill="none" id="apoint28-organisation" style="stroke:#181818;stroke-width:1.0;"/><text fill="#000000" font-family="sans-serif" font-size="13" lengthAdjust="spacing" textLength="8" x="39.1122" y="827.9382">1</text></g><!--link apoint28 to gestionOffre--><g id="link_apoint28_gestionOffre"><path d="M13.3203,706 C24.7758,706 36.2314,706 47.6869,706 " fill="none" id="apoint28-gestionOffre" style="stroke:#181818;stroke-width:1.0;stroke-dasharray:7.0,7.0;"/></g><!--link organisation to apoint33--><g id="link_organisation_apoint33"><path d="M113.626,952.021 C145.104,993.022 183.451,1042.97 189.251,1050.524 " fill="none" id="organisation-apoint33" style="stroke:#181818;stroke-width:1.0;"/><text fill="#000000" font-family="sans-serif" font-size="13" lengthAdjust="spacing" textLength="24" x="93.5495" y="972.2871">0..1</text></g><!--link apoint33 to utilisateur--><g id="link_apoint33_utilisateur"><path d="M190.27,1054.645 C191.547,1059.814 197.437,1081.226 210,1093 C269.022,1148.313 356.603,1180.979 419.873,1198.6784 " fill="none" id="apoint33-utilisateur" style="stroke:#181818;stroke-width:1.0;"/></g><!--link apoint33 to userOrg--><g id="link_apoint33_userOrg"><path d="M192.27,1052.5 C203.938,1052.5 215.606,1052.5 227.274,1052.5 " fill="none" id="apoint33-userOrg" style="stroke:#181818;stroke-width:1.0;stroke-dasharray:7.0,7.0;"/></g><!--SRC=[TLHBRjim4Dth5AoxiOF4I5O1YY10wWzW88s3n5uBj3IssKgam4zW8yW1UfIU8nVhy2E9aXrjg9bvVFFXp7pBOSiua9nggeyL30yZaXLKAN8WTtTaEBtyFf_VtbvVZyWK8Ik4tDyd2TqeBMcc0zPeLZ15DHX9tXE27nSb-K7UgCpsL3fD9U5KgQ7eQJ0GI3C9L3F1qMPbPr0OeD6esGXH0F3a8qcyzvqKfbB1iHVMBE_nElqJBI7IDmn6WLpANQ0GSkVlCwvR3Ck1QxPbb6lh2qhAujXBeTCSqWgXaGlItaTMocsHR5xUaM9O4- -7lF-1uySNfRCFWofxf4WJxiBEAcak0LsY7-2cR331mspXZ_NBe_jvVMX-NjVrJpZzyJJnvoIe9mys1STT2SLiz2fr0NaFFr-MwyNZu_B9ITFPy_Bryw_xVvXCPi-h8BpCvklQy6ivNSmNA21nqtSXZr5e7rEcGHFUmMgbWLvbCc5hBh0tYXZunegY3wteKPrxUx7ToZePm60GOu_KwTkMVAC5ovc6k2Kh1XaeVFQIyXp0qg_Wu4FWcxHhRll95RFrqKmC9vNP5EppNs2F1JXKJ5gXYNlBihtFlMP0UgQDIrpNOVYf2R1kGR2w5JuctPoKoZLH2Pg1x5aA1YOjcL9-EElcStH7lJy_NJjGjcsMKRBqjp1wEF8XcggoD0W9cbBaE6YP6nLKDKGPrf5XzKt34sbmFS79lh1FqctRbYqNcIbnfjNaXBOszVP5R7gcUjzDjhCWBgwkoE1c46_69EofmSrup0Va320v6rA3l-ZacmoZgvU-ZKTat84adQKpk1wFRvpZhbVVXNN4KLy5YxtN1XnJ9iDOYeA8dppfeoBd5XkMxty0]--></g></svg>