<?xml version="1.0" encoding="UTF-8"?> <!-- Generator: Adobe Illustrator 22.1.0, SVG Export Plug-In . SVG Version: 6.00 Build 0) --> <svg xmlns="http://www.w3.org/2000/svg" xmlns:xlink="http://www.w3.org/1999/xlink" id="Calque_1" x="0px" y="0px" viewBox="0 0 439.4 170.1" style="enable-background:new 0 0 439.4 170.1;" xml:space="preserve"> <style type="text/css"> .st0{fill:#706F6F;} .st1{fill:#FFD500;} .st2{fill:none;stroke:#706F6F;} </style> <g> <path class="st0" d="M84.6,56.1h1.8v-3.9c0-0.5-0.4-0.9-0.9-0.9c-0.5,0-0.9,0.4-0.9,0.9V56.1z"></path> <path class="st0" d="M80.8,56.1h1.8v-3.9c0-0.5-0.4-0.9-0.9-0.9c-0.5,0-0.9,0.4-0.9,0.9V56.1z"></path> <path class="st0" d="M88.3,56.1h1.8v-3.9c0-0.5-0.4-0.9-0.9-0.9c-0.5,0-0.9,0.4-0.9,0.9V56.1z"></path> <path class="st0" d="M85.9,41.7c1.2,0.2,1.6,1.3,1.6,2v1.5h1.1v0.9c2.8,1.3,4.9,4.3,4.9,7.4c0,0,0,0,0,0.1v2.6h6.6v-2.7 c-0.1-8.6-6.3-13.9-14.4-14L85.9,41.7z"></path> <path class="st0" d="M84.7,43.7v1.6h1.6v-1.6c0-0.4-0.4-0.8-0.8-0.8C85,42.9,84.7,43.2,84.7,43.7"></path> <path class="st0" d="M86.7,60.4c-6.8-1.7-9.3-3.2-9.3-7.5c0-3.1,2.1-5.7,5-6.9v-0.7h1.1v-1.5c0-0.7,0.5-1.8,1.7-2l0.2-2.3 c-8.2,0.1-15.1,5.7-14.8,13.4c0.4,8.6,9.7,10.9,14.8,12c4,0.8,13.5,3.1,15.9,9.8C101.2,74.7,102.1,63.5,86.7,60.4"></path> <path class="st0" d="M84.4,72.2c6.9,2.1,8.6,4.6,8.6,8.2c0,5.5-4.3,7.8-9.6,7.8c-5.1,0-9.5-2.4-12.5-5.5c0,0-1.1,2.3-1.1,2.3 c2.2,4.1,8.2,7.8,15,7.8h0h0c8.7,0.1,16-4,16-12.1c0-8.8-9.5-12.2-14.8-13.4c-4.2-0.9-14.7-3.7-16.6-9.6 C69.5,57.7,67.4,67.9,84.4,72.2"></path> <path class="st0" d="M57.8,107.4h-2.7l-0.6,1.9H53l2.7-7.3h1.5l2.7,7.3h-1.4L57.8,107.4z M56.4,103.2c0,0-0.2,0.7-0.3,1.1l-0.7,2h2 l-0.7-2C56.6,103.9,56.4,103.2,56.4,103.2L56.4,103.2z"></path> <polygon class="st0" points="62.9,101.9 64.3,101.9 64.3,108.1 67.7,108.1 67.7,109.3 62.9,109.3 "></polygon> <polygon class="st0" points="70.9,101.9 72.3,101.9 72.3,108.1 75.6,108.1 75.6,109.3 70.9,109.3 "></polygon> <rect x="78.8" y="101.9" class="st0" width="1.4" height="7.3"></rect> <path class="st0" d="M88,107.4h-2.7l-0.6,1.9h-1.4l2.7-7.3h1.5l2.7,7.3h-1.4L88,107.4z M86.7,103.2c0,0-0.2,0.7-0.3,1.1l-0.7,2h2 l-0.7-2C86.9,103.9,86.7,103.2,86.7,103.2L86.7,103.2z"></path> <path class="st0" d="M93.2,101.9h1.4l2.9,4.2c0.3,0.4,0.6,1.1,0.6,1.1h0c0,0-0.1-0.7-0.1-1.1v-4.2h1.4v7.3h-1.4l-2.9-4.2 c-0.3-0.4-0.6-1.1-0.6-1.1h0c0,0,0.1,0.7,0.1,1.1v4.2h-1.4V101.9z"></path> <path class="st0" d="M106.9,101.8c1.9,0,2.8,1,2.8,1l-0.7,1c0,0-0.9-0.8-2.1-0.8c-1.6,0-2.6,1.2-2.6,2.5c0,1.4,1,2.6,2.6,2.6 c1.3,0,2.2-0.9,2.2-0.9l0.7,1c0,0-1.1,1.2-3,1.2c-2.3,0-4-1.7-4-3.8C103,103.4,104.7,101.8,106.9,101.8"></path> <polygon class="st0" points="113.3,101.9 117.9,101.9 117.9,103.1 114.7,103.1 114.7,105 117.3,105 117.3,106.2 114.7,106.2 114.7,108.1 118.1,108.1 118.1,109.3 113.3,109.3 "></polygon> <path class="st0" d="M53.9,118c0,0,0.8,0.8,1.9,0.8c0.6,0,1.1-0.3,1.1-0.9c0-1.3-3.6-1.1-3.6-3.3c0-1.2,1.1-2.1,2.6-2.1 c1.5,0,2.3,0.8,2.3,0.8l-0.6,1.1c0,0-0.7-0.6-1.7-0.6c-0.6,0-1.1,0.4-1.1,0.9c0,1.3,3.6,1,3.6,3.3c0,1.2-0.9,2.1-2.5,2.1 c-1.7,0-2.6-1-2.6-1L53.9,118z"></path> <path class="st0" d="M64.2,118.8c1.4,0,2.5-1.1,2.5-2.6c0-1.4-1.1-2.5-2.5-2.5c-1.4,0-2.5,1.1-2.5,2.5 C61.6,117.7,62.8,118.8,64.2,118.8 M64.2,112.4c2.2,0,3.9,1.6,3.9,3.7c0,2.2-1.7,3.8-3.9,3.8c-2.2,0-3.9-1.7-3.9-3.8 C60.2,114.1,61.9,112.4,64.2,112.4"></path> <path class="st0" d="M73,116c0.7,0,1.2-0.4,1.2-1.2c0-0.7-0.3-1.1-1.4-1.1h-1.1v2.3H73z M70.3,112.6h2.5c0.8,0,1.2,0.1,1.5,0.2 c0.8,0.3,1.2,1,1.2,2c0,0.9-0.5,1.7-1.3,2v0c0,0,0.1,0.1,0.3,0.4l1.6,2.7h-1.5l-1.5-2.7h-1.3v2.7h-1.4V112.6z"></path> <path class="st0" d="M80.9,118.7c0.7,0,1.1-0.4,1.1-1.1c0-0.6-0.4-1.1-1.1-1.1h-1.5v2.1H80.9z M80.8,115.6c0.6,0,0.9-0.4,0.9-0.9 c0-0.5-0.3-0.9-1-0.9h-1.3v1.8H80.8z M78.1,112.6h2.7c1.4,0,2.4,0.7,2.4,1.9c0,0.7-0.3,1.3-0.9,1.6v0c0.8,0.2,1.2,1,1.2,1.7 c0,1.5-1.2,2.1-2.6,2.1h-2.8V112.6z"></path> <path class="st0" d="M89.2,118.8c1.4,0,2.5-1.1,2.5-2.6c0-1.4-1.1-2.5-2.5-2.5c-1.4,0-2.5,1.1-2.5,2.5 C86.7,117.7,87.8,118.8,89.2,118.8 M89.2,112.4c2.2,0,3.9,1.6,3.9,3.7c0,2.2-1.7,3.8-3.9,3.8c-2.2,0-3.9-1.7-3.9-3.8 C85.3,114.1,87,112.4,89.2,112.4"></path> <path class="st0" d="M95.5,112.6h1.4l2.9,4.2c0.3,0.4,0.6,1.1,0.6,1.1h0c0,0-0.1-0.7-0.1-1.1v-4.2h1.4v7.3h-1.4l-2.9-4.2 c-0.3-0.4-0.6-1.1-0.6-1.1h0c0,0,0.1,0.7,0.1,1.1v4.2h-1.4V112.6z"></path> <path class="st0" d="M104.5,112.6h1.4l2.9,4.2c0.3,0.4,0.6,1.1,0.6,1.1h0c0,0-0.1-0.7-0.1-1.1v-4.2h1.4v7.3h-1.4l-2.9-4.2 c-0.3-0.4-0.6-1.1-0.6-1.1h0c0,0,0.1,0.7,0.1,1.1v4.2h-1.4V112.6z"></path> <polygon class="st0" points="113.5,112.6 113.5,119.9 118.2,119.9 118.2,118.7 114.9,118.7 114.9,116.8 117.5,116.8 117.5,115.6 114.9,115.6 114.9,113.7 118.1,113.7 118.1,112.6 "></polygon> <path class="st0" d="M53.3,123.1h1.4v4.7c0,1,0.7,1.6,1.7,1.6c1,0,1.7-0.6,1.7-1.6v-4.7h1.4v4.7c0,1.7-1.2,2.8-3.1,2.8 c-1.9,0-3.1-1.1-3.1-2.8V123.1z"></path> <path class="st0" d="M61.8,123.2h1.4l2.9,4.2c0.3,0.4,0.6,1.1,0.6,1.1h0c0,0-0.1-0.7-0.1-1.1v-4.2H68v7.3h-1.4l-2.9-4.2 c-0.3-0.4-0.6-1.1-0.6-1.1h0c0,0,0.1,0.7,0.1,1.1v4.2h-1.4V123.2z"></path> <rect x="70.5" y="123.2" class="st0" width="1.4" height="7.3"></rect> <path class="st0" d="M73.4,123.2h1.5l1.7,4.8c0.2,0.4,0.3,1.1,0.3,1.1h0c0,0,0.1-0.6,0.3-1.1l1.7-4.8h1.5l-2.8,7.3h-1.4L73.4,123.2 z"></path> <polygon class="st0" points="81.8,123.2 86.4,123.2 86.4,124.3 83.2,124.3 83.2,126.2 85.8,126.2 85.8,127.4 83.2,127.4 83.2,129.4 86.6,129.4 86.6,130.5 81.8,130.5 "></polygon> <path class="st0" d="M91.2,126.6c0.7,0,1.2-0.4,1.2-1.2c0-0.7-0.3-1.1-1.4-1.1h-1.1v2.3H91.2z M88.5,123.2H91 c0.8,0,1.2,0.1,1.5,0.2c0.8,0.3,1.2,1,1.2,2c0,0.9-0.5,1.7-1.3,2v0c0,0,0.1,0.1,0.3,0.4l1.6,2.7h-1.5l-1.5-2.7h-1.3v2.7h-1.4V123.2 z"></path> <path class="st0" d="M96.3,128.6c0,0,0.8,0.8,1.9,0.8c0.6,0,1.1-0.3,1.1-0.9c0-1.3-3.6-1.1-3.6-3.3c0-1.2,1.1-2.1,2.6-2.1 c1.5,0,2.3,0.8,2.3,0.8l-0.6,1.1c0,0-0.7-0.6-1.7-0.6c-0.6,0-1.1,0.4-1.1,0.9c0,1.3,3.6,1,3.6,3.3c0,1.2-0.9,2.1-2.5,2.1 c-1.7,0-2.6-1-2.6-1L96.3,128.6z"></path> <rect x="102.6" y="123.2" class="st0" width="1.4" height="7.3"></rect> <polygon class="st0" points="108.1,124.3 105.6,124.3 105.6,123.2 112,123.2 112,124.3 109.5,124.3 109.5,130.5 108.1,130.5 "></polygon> <path class="st0" d="M113.5,123.2v7.3h4.7v-1.1h-3.4v-2h2.6v-1.1h-2.6v-1.9h3.2v-1.1H113.5z M116.1,121.3l-0.8,1.4h1.1l1.1-1.4 H116.1z"></path> </g> <g> <path class="st0" d="M327.7,73.1h-9v34.8c0,8.6-4.6,13.6-12.7,13.6c-8,0-12.4-4.8-12.4-13.6V73.1h-10.1v36c0,6.9,2,12.3,5.9,16.1 c3.5,3.5,8.7,5.4,14.9,5.4c5.6,0,10.6-2,14.5-5.5v4.9h9.9V73.1H327.7z"></path> <path class="st0" d="M351.5,56.2h-9v17.2h-6.9v8.2h6.9v32.7c0,9.6,5.9,15.7,15.1,15.7h6.7V121H359c-4.3,0-6.5-2.3-6.5-7V81.6h11.7 v-8.2h-11.7V56.2H351.5z"></path> <path class="st0" d="M369.6,101.5c0,18,9.7,29.1,25.3,29.1c8,0,13.1-2.3,18.8-8.5l0.7-0.7l-6.9-6.7l-0.7,0.8c-4,4.4-7,5.9-11.9,5.9 c-5.1,0-9.2-2-11.9-5.8c-2.4-3.3-3.4-7.4-3.4-14.1c0-6.7,1-10.8,3.4-14.1c2.7-3.8,6.8-5.8,11.9-5.8c4.9,0,7.9,1.5,11.9,5.8l0.7,0.8 l6.9-6.5l-0.7-0.7c-5.7-6.2-10.8-8.5-18.8-8.5C379.3,72.4,369.6,83.5,369.6,101.5"></path> <path class="st1" d="M167.7,96.3v33.8h90.7V74.2c-29.6,5.1-45,12.1-71.8,26.1L167.7,96.3z"></path> <path class="st1" d="M258.5,39.4h-90.7v39.8c30.1-10.9,62.2-17.9,90.7-20.1V39.4z"></path> <path class="st0" d="M258.5,59.1c-28.5,2.2-60.6,9.2-90.7,20.1c-5.7,2.1-11.4,4.3-16.9,6.7l35.9,8.7c29-15.1,47-22,81.7-27.3v-8.8 C265.1,58.7,261.8,58.9,258.5,59.1"></path> </g> <g> <line class="st2" x1="145" y1="39.5" x2="132.3" y2="129.8"></line> </g> </svg>
